<?xml version="1.0" encoding="utf-8"?>
<!-- Generator: Adobe Illustrator 26.0.2, SVG Export Plug-In . SVG Version: 6.00 Build 0)  -->
<svg version="1.1" id="Ebene_1" xmlns="http://www.w3.org/2000/svg" xmlns:xlink="http://www.w3.org/1999/xlink" x="0px" y="0px"
	 viewBox="0 0 800 400" style="enable-background:new 0 0 800 400;" xml:space="preserve">
<style type="text/css">
	.st0{fill:#9494BD;}
	.st1{fill:#003882;}
</style>
<g>
	<path class="st0" d="M50.1,305.8c0-5.6,7.5-8.4,22.6-8.4c10.4,0,19.9,2.4,28.7,7.2l8.2-8.9c-9.5-6.9-21.8-10.3-37.1-10.3
		c-11.5,0-20.4,2-26.7,5.9c-6.4,3.9-9.5,9.3-9.5,16c0,5.6,2,9.8,5.9,12.7c4,2.9,10.1,4.8,18.5,5.6c2.1,0.2,7.9,0.6,17.3,1
		c6,0.3,10.5,0.9,13.3,1.7c5.1,1.5,7.7,4.2,7.7,7.9c0,3.4-2.1,6.1-6.3,8.1c-4.2,2-10.1,3-17.7,3c-13.6,0-25-3.4-34.4-10.2l-7.2,9.8
		c10.4,8.3,24.3,12.4,41.7,12.4c12.3,0,21.8-2.1,28.3-6.2c6.5-4.1,9.7-10,9.7-17.6c0-6.7-2.6-11.7-7.8-15c-4.7-3-12.6-5-23.7-6.2
		c-7.7-0.8-15.4-1.5-23.1-2.2C53,311.2,50.1,309.1,50.1,305.8 M207.2,357.7h13.2v-70.6h-19.9l-27.7,39.9l-27.6-39.9h-19.8v70.6h13.2
		v-58.1l0.3-0.5l33.9,48.5l34-48.1L207.2,357.7z M291.6,330.2h-32.3l16.2-31.3L291.6,330.2z M306,357.7h14.5l-36.9-70.6h-16.4
		l-36.9,70.6h14.5l7.8-15.1h45.5L306,357.7z M383.2,319.4h-39.5v-19.8h38.8c8.5,0,12.8,3.4,12.8,10.2
		C395.2,316.2,391.2,319.4,383.2,319.4 M410.2,357.7L391.9,331c11.2-2.6,16.9-9.8,16.9-21.5c0-6.8-2.1-12.2-6.4-16.3
		c-4.3-4.1-10-6.1-17.2-6.1h-54.7v70.6h13.2v-25.9h33.6l17.7,25.9H410.2z M486.2,287.2h-69.3v12.4h32.4v58.2h13.2v-58.2h30.8
		L486.2,287.2z"/>
</g>
<g>
	<rect x="33.4" y="372.6" class="st1" width="733.2" height="12.6"/>
	<path class="st1" d="M591,261.4l-44.1,82.3L502,261.4H33.4v12.6h460.4l45.1,83.7h16l51.7-96.3H591z M709.7,261.4l-40.3,63.2
		l-40.2-63.2h-17.4v96.3h13.9V282h0.3l43.2,66.9l43.5-66.9h0.3v75.7H727v-96.3H709.7z M751.5,357.7h15.2v-96.3h-15.2V357.7z"/>
</g>
<g>
	<path class="st1" d="M407.8,114.9c1.9,0,3.5-1.6,3.5-3.5s-1.6-3.5-3.5-3.5h-14.4V70.2h14.4c1.9,0,3.5-1.6,3.5-3.5
		c0-1.9-1.6-3.5-3.5-3.5h-14.4V36.9c0-0.1,0-0.1,0-0.2c0-0.1,0-0.1,0-0.2c0-14.3-11.1-25.6-25.2-25.6c-12.3,0-23,8.5-24.9,19.7
		c-0.1,0.3-0.1,0.7-0.1,1c-2-0.2-4.3-0.4-5.6-0.4c-15.7,0-28.4,12.7-28.4,28.4c0,2,0.2,3.9,0.6,5.8c-13.8,1.9-24.5,13.8-24.5,28.1
		c0,5.8,1.9,11.4,5.3,16.1c-6.8,5.3-10.5,13.1-10.5,22.3c0,8.9,3.9,16.9,10.2,22.3c-3.2,4.7-5,10.3-5,16c0,11.4,6.8,21.6,17.2,26.1
		c0,0.7-0.1,1.3-0.1,2c0,21.4,16.8,38.7,38.1,39.3c0,0,0.1,0,0.1,0c7,6.2,16.2,9.9,26.1,9.9c9.2,0,20.4-4.2,25.6-9.6l1-1v-30.5h14.4
		c1.9,0,3.5-1.6,3.5-3.5s-1.6-3.5-3.5-3.5h-14.4V161h14.4c1.9,0,3.5-1.6,3.5-3.5c0-1.9-1.6-3.5-3.5-3.5h-14.4v-39.1H407.8z
		 M386.4,153.9h-15.2c-1.6-6.1-7.1-10.6-13.6-10.6c-7.8,0-14.1,6.3-14.1,14.1s6.3,14.1,14.1,14.1c6.6,0,12.1-4.5,13.6-10.6h15.2
		v38.5h-19.8c-1.6-6.1-7.1-10.6-13.6-10.6c-7.8,0-14.1,6.3-14.1,14.1c0,7.8,6.3,14.1,14.1,14.1c6.6,0,12.1-4.5,13.6-10.6h19.8V234
		c-4,3.3-12.4,6.6-19.6,6.6c-15,0-27.9-10.1-31.4-24.7c-0.5-1.9-2.4-3-4.2-2.6c-1.9,0.5-3,2.4-2.6,4.2c1.1,4.4,2.9,8.5,5.2,12.2
		c-14.1-3.5-24.3-16.1-24.3-31.3c0-6.7,2.2-13.2,6.6-19.3c1.1-1.6,0.8-3.8-0.8-4.9c-1.6-1.1-3.8-0.8-4.9,0.8
		c-3.2,4.4-5.4,9.2-6.7,14.2c-6.9-3.7-11.3-10.9-11.3-18.8c0-4.3,1.3-8.5,3.7-12.1c4.1,2.2,8.8,3.4,13.8,3.4c7,0,12.1-0.6,16.8-3.2
		c0.3,5.4,2,10.6,5.2,15.1c0.7,1,1.8,1.5,2.9,1.5c0.7,0,1.4-0.2,2-0.6c1.6-1.1,2-3.3,0.8-4.9c-4-5.6-5-12.9-2.8-19.3
		c0.5-1.5,1.2-3,2.1-4.3c4.3-7,12.4-10.9,20.6-10c1.9,0.2,3.7-1.2,3.9-3.1s-1.2-3.7-3.1-3.9c-10.9-1.3-21.6,3.9-27.4,13.2
		c-1.1,1.8-2,3.7-2.7,5.7c-0.1,0.2-0.1,0.5-0.2,0.7c-0.1,0.1-0.2,0.2-0.3,0.3c-4.9,5-8.8,5.9-17.7,5.9c-12.6,0-22.8-10.2-22.8-22.6
		c0-7.4,2.8-13.2,8.3-17.2c5.3,4.4,12.2,6.9,19.2,6.9c0.3,0,0.6,0,0.9,0c1.9-0.1,3.5-1.7,3.4-3.6c-0.1-1.9-1.7-3.5-3.6-3.4
		c-6.3,0.2-12.2-2.1-16.7-6.4c-4.1-4-6.4-9.2-6.4-14.7c0-11.3,8.7-20.5,19.8-21.3c4.7,9.4,14.3,15.8,25.5,15.8
		c1.9,0,3.5-1.6,3.5-3.5s-1.6-3.5-3.5-3.5c-11.8,0-21.4-9.6-21.4-21.4c0-11.8,9.6-21.4,21.4-21.4c1.3,0,3.7,0.2,5.4,0.4
		c0.1,1.8,0.3,3.6,0.6,5.3c0.4,1.9,2.2,3.1,4.1,2.8c1.9-0.4,3.1-2.2,2.8-4.1c-0.6-2.8-0.9-7.2-0.3-10.7c1.4-7.9,9.1-13.9,18-13.9
		c10.2,0,18.2,8.1,18.2,18.5c0,0.1,0,0.1,0,0.2c0,0.1,0,0.1,0,0.2v26.3h-19.8c-1.6-6.1-7.1-10.6-13.6-10.6
		c-7.8,0-14.1,6.3-14.1,14.1s6.3,14.1,14.1,14.1c6.6,0,12.1-4.5,13.6-10.6h19.8v37.6h-33.5c-1.6-6.1-7.1-10.6-13.6-10.6
		c-7.8,0-14.1,6.3-14.1,14.1s6.3,14.1,14.1,14.1c6.6,0,12.1-4.5,13.6-10.6h33.5V153.9z M364.6,157.5c0,3.9-3.2,7.1-7.1,7.1
		s-7.1-3.2-7.1-7.1s3.2-7.1,7.1-7.1S364.6,153.6,364.6,157.5z M360.1,203c0,3.9-3.2,7.1-7.1,7.1s-7.1-3.2-7.1-7.1s3.2-7.1,7.1-7.1
		S360.1,199.1,360.1,203z M360.1,66.7c0,3.9-3.2,7.1-7.1,7.1s-7.1-3.2-7.1-7.1s3.2-7.1,7.1-7.1S360.1,62.8,360.1,66.7z M346.3,111.3
		c0,3.9-3.2,7.1-7.1,7.1s-7.1-3.2-7.1-7.1s3.2-7.1,7.1-7.1S346.3,107.4,346.3,111.3z"/>
	<g>
		<path class="st1" d="M523.2,126.1c0.1,0,0.3,0,0.4,0c1,0,1.9-0.3,2.5-1c0.7-0.7,1.1-1.6,1.1-2.5v-94c0-0.9-0.4-1.8-1-2.5
			c-0.7-0.7-1.5-1-2.5-1l-19.9,0.2V14.4c0-1.9-1.6-3.5-3.5-3.5h-88.6c-1.9,0-3.5,1.6-3.5,3.5v229.8c0,1.9,1.6,3.5,3.5,3.5h88.6
			c1.9,0,3.5-1.6,3.5-3.5v-7.8h20c1.9,0,3.5-1.6,3.5-3.5v-92.8c0-0.9-0.4-1.8-1-2.5c-0.7-0.7-1.6-1-2.5-1c-0.1,0-0.3,0-0.4,0
			c-4.1,0-7.6-2.4-7.6-5.3C515.6,128.5,519.1,126.1,523.2,126.1z M496.7,240.7h-81.5V17.9h81.5V240.7z M520.2,143.4v7.1h-7.8v7h7.8
			v14.3h-7.8v7h7.8v14.3h-7.8v7h7.8v14.3h-7.8v7h7.8v7.8h-16.5V32.3l16.5-0.1v9.3h-7.8v7h7.8v14.3h-7.8v7h7.8v14.3h-7.8v7h7.8v14.3
			h-7.8v7h7.8v6.8c-6.6,1.2-11.6,6.1-11.6,12C508.6,137.3,513.6,142.2,520.2,143.4z"/>
		<path class="st1" d="M431.7,78H480c1.9,0,3.5-1.6,3.5-3.5V54.6c0-1.9-1.6-3.5-3.5-3.5h-48.3c-1.9,0-3.5,1.6-3.5,3.5v19.9
			C428.2,76.4,429.8,78,431.7,78z M435.2,58.1h41.2V71h-41.2V58.1z"/>
		<path class="st1" d="M431.7,122.9H480c1.9,0,3.5-1.6,3.5-3.5V99.6c0-1.9-1.6-3.5-3.5-3.5h-48.3c-1.9,0-3.5,1.6-3.5,3.5v19.9
			C428.2,121.4,429.8,122.9,431.7,122.9z M435.2,103.1h41.2v12.8h-41.2V103.1z"/>
		<path class="st1" d="M431.7,167.9H480c1.9,0,3.5-1.6,3.5-3.5v-19.9c0-1.9-1.6-3.5-3.5-3.5h-48.3c-1.9,0-3.5,1.6-3.5,3.5v19.9
			C428.2,166.3,429.8,167.9,431.7,167.9z M435.2,148.1h41.2v12.8h-41.2V148.1z"/>
		<path class="st1" d="M431.7,212.9H480c1.9,0,3.5-1.6,3.5-3.5v-19.9c0-1.9-1.6-3.5-3.5-3.5h-48.3c-1.9,0-3.5,1.6-3.5,3.5v19.9
			C428.2,211.3,429.8,212.9,431.7,212.9z M435.2,193h41.2v12.8h-41.2V193z"/>
	</g>
</g>
</svg>
